<mxfile host="Electron" agent="Mozilla/5.0 (Windows NT 10.0; Win64; x64) AppleWebKit/537.36 (KHTML, like Gecko) draw.io/25.0.2 Chrome/128.0.6613.186 Electron/32.2.5 Safari/537.36" version="25.0.2">
  <diagram name="Page-1" id="qfcnAvIKfc0-0ABdk4y5">
    <mxGraphModel dx="422" dy="272" grid="1" gridSize="10" guides="1" tooltips="1" connect="1" arrows="1" fold="1" page="1" pageScale="1" pageWidth="570" pageHeight="940" math="0" shadow="0">
      <root>
        <mxCell id="0" />
        <mxCell id="1" parent="0" />
        <mxCell id="n_qzaAF0xTGRdUm0nthV-1" value="Symboles" style="swimlane;whiteSpace=wrap;html=1;fillColor=none;" vertex="1" parent="1">
          <mxGeometry x="10" y="30" width="530" height="370" as="geometry" />
        </mxCell>
        <mxCell id="n_qzaAF0xTGRdUm0nthV-5" value="" style="endArrow=open;endSize=7;html=1;rounded=0;entryX=1;entryY=0.5;entryDx=0;entryDy=0;exitX=0;exitY=0.5;exitDx=0;exitDy=0;" edge="1" parent="n_qzaAF0xTGRdUm0nthV-1" source="n_qzaAF0xTGRdUm0nthV-28" target="n_qzaAF0xTGRdUm0nthV-29">
          <mxGeometry width="160" relative="1" as="geometry">
            <mxPoint x="430" y="230" as="sourcePoint" />
            <mxPoint x="390" y="105.5" as="targetPoint" />
          </mxGeometry>
        </mxCell>
        <mxCell id="n_qzaAF0xTGRdUm0nthV-3" value="&lt;b&gt;Square&amp;nbsp;&lt;/b&gt;represent ressources." style="text;html=1;align=left;verticalAlign=middle;whiteSpace=wrap;rounded=0;" vertex="1" parent="n_qzaAF0xTGRdUm0nthV-1">
          <mxGeometry x="30" y="50" width="280" height="30" as="geometry" />
        </mxCell>
        <mxCell id="n_qzaAF0xTGRdUm0nthV-14" value="&lt;b&gt;Solid arrow line from ressource to a process&lt;/b&gt;&amp;nbsp;means the process is holding the ressource." style="text;html=1;align=left;verticalAlign=top;whiteSpace=wrap;rounded=0;" vertex="1" parent="n_qzaAF0xTGRdUm0nthV-1">
          <mxGeometry x="30" y="200" width="280" height="40" as="geometry" />
        </mxCell>
        <mxCell id="n_qzaAF0xTGRdUm0nthV-25" value="&lt;b&gt;Circle&amp;nbsp;&lt;/b&gt;represent processes." style="text;html=1;align=left;verticalAlign=middle;whiteSpace=wrap;rounded=0;" vertex="1" parent="n_qzaAF0xTGRdUm0nthV-1">
          <mxGeometry x="30" y="125" width="280" height="30" as="geometry" />
        </mxCell>
        <mxCell id="n_qzaAF0xTGRdUm0nthV-26" value="R&lt;sub&gt;1&lt;/sub&gt;" style="whiteSpace=wrap;html=1;aspect=fixed;strokeColor=default;fillColor=none;" vertex="1" parent="n_qzaAF0xTGRdUm0nthV-1">
          <mxGeometry x="412.5" y="50" width="35" height="35" as="geometry" />
        </mxCell>
        <mxCell id="n_qzaAF0xTGRdUm0nthV-27" value="P&lt;sub&gt;1&lt;/sub&gt;" style="ellipse;whiteSpace=wrap;html=1;aspect=fixed;fillColor=none;" vertex="1" parent="n_qzaAF0xTGRdUm0nthV-1">
          <mxGeometry x="410" y="115" width="40" height="40" as="geometry" />
        </mxCell>
        <mxCell id="n_qzaAF0xTGRdUm0nthV-28" value="R&lt;sub&gt;1&lt;/sub&gt;" style="whiteSpace=wrap;html=1;aspect=fixed;strokeColor=default;fillColor=none;" vertex="1" parent="n_qzaAF0xTGRdUm0nthV-1">
          <mxGeometry x="470" y="200" width="35" height="35" as="geometry" />
        </mxCell>
        <mxCell id="n_qzaAF0xTGRdUm0nthV-29" value="P&lt;sub&gt;1&lt;/sub&gt;" style="ellipse;whiteSpace=wrap;html=1;aspect=fixed;fillColor=none;" vertex="1" parent="n_qzaAF0xTGRdUm0nthV-1">
          <mxGeometry x="360" y="197.5" width="40" height="40" as="geometry" />
        </mxCell>
        <mxCell id="n_qzaAF0xTGRdUm0nthV-30" value="P&lt;sub&gt;1&lt;/sub&gt;" style="ellipse;whiteSpace=wrap;html=1;aspect=fixed;fillColor=none;" vertex="1" parent="n_qzaAF0xTGRdUm0nthV-1">
          <mxGeometry x="360" y="290" width="40" height="40" as="geometry" />
        </mxCell>
        <mxCell id="n_qzaAF0xTGRdUm0nthV-31" value="R&lt;sub&gt;1&lt;/sub&gt;" style="whiteSpace=wrap;html=1;aspect=fixed;strokeColor=default;fillColor=none;" vertex="1" parent="n_qzaAF0xTGRdUm0nthV-1">
          <mxGeometry x="470" y="290" width="35" height="35" as="geometry" />
        </mxCell>
        <mxCell id="n_qzaAF0xTGRdUm0nthV-32" value="" style="endArrow=open;endSize=7;html=1;rounded=0;exitX=1;exitY=0.5;exitDx=0;exitDy=0;entryX=-0.015;entryY=0.566;entryDx=0;entryDy=0;entryPerimeter=0;" edge="1" parent="n_qzaAF0xTGRdUm0nthV-1" source="n_qzaAF0xTGRdUm0nthV-30" target="n_qzaAF0xTGRdUm0nthV-31">
          <mxGeometry width="160" relative="1" as="geometry">
            <mxPoint x="470" y="309.73" as="sourcePoint" />
            <mxPoint x="440" y="320" as="targetPoint" />
          </mxGeometry>
        </mxCell>
        <mxCell id="n_qzaAF0xTGRdUm0nthV-34" value="&lt;font style=&quot;font-size: 10px;&quot;&gt;P&lt;sub style=&quot;&quot;&gt;1 &lt;/sub&gt;Holds R&lt;sub style=&quot;&quot;&gt;1&lt;/sub&gt;&lt;/font&gt;" style="text;html=1;align=center;verticalAlign=middle;whiteSpace=wrap;rounded=0;" vertex="1" parent="n_qzaAF0xTGRdUm0nthV-1">
          <mxGeometry x="404" y="198" width="70" height="20" as="geometry" />
        </mxCell>
        <mxCell id="n_qzaAF0xTGRdUm0nthV-35" value="&lt;font style=&quot;font-size: 9px;&quot;&gt;P&lt;sub style=&quot;&quot;&gt;1 &lt;/sub&gt;waits for R&lt;sub style=&quot;&quot;&gt;1&lt;/sub&gt;&lt;/font&gt;" style="text;html=1;align=center;verticalAlign=middle;whiteSpace=wrap;rounded=0;" vertex="1" parent="n_qzaAF0xTGRdUm0nthV-1">
          <mxGeometry x="397.5" y="288" width="70" height="20" as="geometry" />
        </mxCell>
        <mxCell id="n_qzaAF0xTGRdUm0nthV-38" value="&lt;b&gt;Solid arrow line from process to a ressource&lt;/b&gt;&lt;span style=&quot;background-color: initial;&quot;&gt;&amp;nbsp;means the process is waiting the ressource to be released&lt;/span&gt;" style="text;html=1;align=left;verticalAlign=top;whiteSpace=wrap;rounded=0;" vertex="1" parent="n_qzaAF0xTGRdUm0nthV-1">
          <mxGeometry x="30" y="285" width="280" height="65" as="geometry" />
        </mxCell>
      </root>
    </mxGraphModel>
  </diagram>
</mxfile>
